# xmcd
#
# Track frame offsets:
#	150
#	6560
#	31740
#	60670
#	88172
#	105780
#	140932
#	158987
#	174897
#	182925
#	196850
#	213717
#	232790
#
# Disc length: 3262 seconds
#
# Revision: 0
# Processed by: cddbd v1.5.2PL0 Copyright (c) Steve Scherf et al.
# Submitted via: EasyCDDAExtractor 10.0.3.1
#
DISCID=ab0cbc0d
DTITLE=Various Artist - AS GOOD AS IT GETS MUSIC FROM THE MOTION PICTURE
DYEAR=1900
DGENRE=
TTITLE0=HANS ZIMMER - AS GOOD AS IT GETS
TTITLE1=HANS ZIMMER - A BETTER MAN
TTITLE2=HANS ZIMMER - HUMANITY
TTITLE3=HANS ZIMMER - TOO MUCH REALITY
TTITLE4=HANS ZIMMER - 1.2.3.4.5
TTITLE5=HANS ZIMMER - GREATEST WOMAN ON EARTH
TTITLE6=DANIELLE BRISEBOIS - EVERYTHING MY HEART DESIRES
TTITLE7=PHIL ROY - UNDER STARS
TTITLE8=DANIELLE BRISEBOIS - MY ONLY
TTITLE9=NAT KING COLE - FOR SENTIMENTAL REASONS (I LOVE YOU)
TTITLE10=JUDITH OWEN - HAND ON MY HEART
TTITLE11=SHAWN COLVIN - CLIMB ON (A BACK THAT'S STRONG)
TTITLE12=ART GARFUNKEL - ALWAYS LOOK ON THE BRIGHT SIDE OF LIFE
EXTD=
EXTT0=
EXTT1=
EXTT2=
EXTT3=
EXTT4=
EXTT5=
EXTT6=
EXTT7=
EXTT8=
EXTT9=
EXTT10=
EXTT11=
EXTT12=
PLAYORDER=
